# xmcd CD database file
#
# Track frame offsets:
#	183
#	9610
#	24148
#	36520
#	53775
#	72185
#	88770
#	102960
#	116203
#	133288
#	148720
#	163060
#	177450
#	189370
#	205633
#	218508
#	233328
#	245958
#	261738
#	274218
#	286435
#	298688
#	311940
#	329953
#
# Disc length: 4662 seconds
#
# Revision: 0
# Processed by: cddbd v1.4PL0 Copyright (c) Steve Scherf et al.
# Submitted via: CDex 1.50Beta7
#
DISCID=84123418
DTITLE=Henry Mancini - Peter Gunn
DYEAR=1959
DGENRE=Jazz
TTITLE0=Peter Gunn
TTITLE1=Blue Steel
TTITLE2=The Brothers Go To Mother's
TTITLE3=Session at Pete's Pad
TTITLE4=Walkin' Bass
TTITLE5=Dreamsville
TTITLE6=The Little Man Theme
TTITLE7=Sorta blue
TTITLE8=Goofin' at the Coffee House
TTITLE9=A Quiet Gass
TTITLE10=A Profound Gass
TTITLE11=Fallout!
TTITLE12=Lightly
TTITLE13=Soft Sounds
TTITLE14=Odd Ball
TTITLE15=The Floater
TTITLE16=Blues for Mother's
TTITLE17=Brief and Breezy
TTITLE18=Joanna
TTITLE19=My Manne Shelly
TTITLE20=Spook!
TTITLE21=A Ball for John
TTITLE22=Goofin' at the Coffee House (2nd)
TTITLE23=Not From Dixie
EXTD=YEAR: 1959
EXTT0=
EXTT1=
EXTT2=
EXTT3=
EXTT4=
EXTT5=
EXTT6=
EXTT7=
EXTT8=
EXTT9=
EXTT10=
EXTT11=
EXTT12=
EXTT13=
EXTT14=
EXTT15=
EXTT16=
EXTT17=
EXTT18=
EXTT19=
EXTT20=
EXTT21=
EXTT22=
EXTT23=
PLAYORDER=
